<svg xmlns="http://www.w3.org/2000/svg" viewBox="48 160.005 459.8300018310547 255"> <svg xmlns="http://www.w3.org/2000/svg" xmlns:xlink="http://www.w3.org/1999/xlink" version="1.1" id="Layer_1" x="118" y="230.005" viewBox="341 318.9200134277344 318 362.1600036621094" xml:space="preserve" height="115" width="100.96875" preserveAspectRatio="xMinYMin" enable-background="new 0 0 1000 1000" style="overflow: visible;"><polygon class="st0" points="508.74,396.33 491.28,400.33 422.36,416.13 391.79,513.8 491.28,492.37 503.28,489.78 508.74,472.34    534.36,390.45  " style="fill: #6ce013; fill-opacity: 0.6392156862745098;"></polygon><polygon class="st1" points="341,405.68 341,586.25 378.44,564.63 378.44,523.06 380.01,518.04 412.83,413.15 414.55,407.69     420.13,406.41 491.28,390.09 491.28,318.92   " style="fill: #F85D5D; fill-opacity: 1;"></polygon><polygon class="st2" points="400.95,551.64 381.7,527.19 378.44,523.06 378.44,564.63   " style="fill: #284389; fill-opacity: 1;"></polygon><polygon class="st3" points="534.36,390.45 456.1,436.7 391.79,513.8 422.36,416.13  " style="opacity: 0.25; fill: #3F63C8; fill-opacity: 1;"></polygon><polygon class="st4" points="579.36,585.69 579.36,585.69 579.36,585.69    " style="fill: #c8f1b1; fill-opacity: 1;"></polygon><polygon class="st4" points="543.73,393.91 512.72,493.02 525.38,509.1 554.5,546.07 581.17,579.92 586.06,564.29 591.4,547.22      612.18,480.81    " style="fill: #c8f1b1; fill-opacity: 1;"></polygon><polygon class="st5" points="505.18,499.58 482.75,504.41 391.87,523.99 409.68,546.6 420.6,560.45 461.72,612.66 573.98,586.92      531.21,532.62    " style="fill: #4e900a; fill-opacity: 0.8470588235294118;"></polygon><polygon class="st5" points="579.36,585.69 579.36,585.69 579.36,585.69    " style="fill: #4e900a; fill-opacity: 0.8470588235294118;"></polygon><polygon class="st2" points="621.7,483.78 600.25,552.33 623.28,565.62 623.28,478.76    " style="fill: #284389; fill-opacity: 1;"></polygon><polygon class="st6" points="659,405.68 508.74,318.92 508.74,386.09 537.76,379.44 543.92,378.02 547.83,382.99 620.02,474.63      623.28,478.76 623.28,565.62 659,586.25    " style="fill: #FED74F; fill-opacity: 1;"></polygon><polygon class="st7" points="387.82,579.38 355.83,597.85 500.01,681.08 599.22,623.8 457.79,623.8    " style="fill: #4A73E8; fill-opacity: 1;"></polygon><polygon class="st2" points="453.89,618.84 411.87,565.49 387.82,579.38 457.79,623.8    " style="fill: #284389; fill-opacity: 1;"></polygon><polygon class="st2" points="594.91,569.4 588.88,588.67 587.17,594.13 581.59,595.41 463.95,622.39 457.79,623.8 599.22,623.8      644.17,597.85    " style="fill: #284389; fill-opacity: 1;"></polygon><polygon class="st3" points="391.87,523.99 473.7,578.68 573.98,586.92 461.72,612.66   " style="opacity: 0.25; fill: #3F63C8; fill-opacity: 1;"></polygon><polyline class="st3" points="543.73,393.91 545.29,397.19 584.29,479.15 581.17,579.92 612.18,480.81   " style="opacity: 0.25; fill: #3F63C8; fill-opacity: 1;"></polyline><polygon class="st8" points="473.7,578.68 519.99,518.32 573.98,586.92   " style="opacity: 0.16; fill: #3F63C8; fill-opacity: 1;"></polygon><polygon class="st8" points="584.29,479.15 526.93,510.92 581.17,579.92   " style="opacity: 0.16; fill: #3F63C8; fill-opacity: 1;"></polygon></svg> <svg x="233" y="278" viewBox="1.0099999904632568 13.34000015258789 204.8300018310547 27.880001068115234" height="27.880001068115234" width="204.8300018310547" style="overflow: visible;"><g fill="#534747" fill-opacity="1" style=""><path d="M21.18 40.95L19.38 35.76L8.54 35.76L6.75 40.95L1.01 40.95L10.80 13.69L17.16 13.69L26.95 40.95L21.18 40.95ZM10.02 31.40L17.90 31.40L13.96 20.01L10.02 31.40ZM64.12 40.95L57.84 40.95L51.95 31.79L46.61 40.95L40.44 40.95L49.02 27.22L40.33 13.73L46.61 13.73L52.49 22.85L57.80 13.73L63.96 13.73L55.42 27.42L64.12 40.95ZM91.84 41.22Q88.02 41.22 84.83 39.43Q81.63 37.64 79.75 34.46Q77.88 31.28 77.88 27.26L77.88 27.26Q77.88 23.28 79.75 20.10Q81.63 16.93 84.83 15.13Q88.02 13.34 91.84 13.34L91.84 13.34Q95.71 13.34 98.88 15.13Q102.06 16.93 103.92 20.10Q105.77 23.28 105.77 27.26L105.77 27.26Q105.77 31.28 103.92 34.46Q102.06 37.64 98.87 39.43Q95.67 41.22 91.84 41.22L91.84 41.22ZM91.84 36.35Q94.30 36.35 96.17 35.24Q98.05 34.13 99.10 32.06Q100.15 29.99 100.15 27.26L100.15 27.26Q100.15 24.53 99.10 22.48Q98.05 20.44 96.17 19.34Q94.30 18.25 91.84 18.25L91.84 18.25Q89.39 18.25 87.50 19.34Q85.61 20.44 84.55 22.48Q83.50 24.53 83.50 27.26L83.50 27.26Q83.50 29.99 84.55 32.06Q85.61 34.13 87.50 35.24Q89.39 36.35 91.84 36.35L91.84 36.35ZM126.20 13.73L126.20 36.62L135.17 36.62L135.17 40.95L120.74 40.95L120.74 13.73L126.20 13.73ZM169.42 22.15Q169.42 24.34 168.38 26.25Q167.35 28.16 165.15 29.33Q162.94 30.50 159.59 30.50L159.59 30.50L155.03 30.50L155.03 40.95L149.57 40.95L149.57 13.73L159.59 13.73Q162.75 13.73 164.97 14.82Q167.19 15.91 168.30 17.82Q169.42 19.73 169.42 22.15L169.42 22.15ZM159.35 26.09Q161.62 26.09 162.71 25.06Q163.80 24.02 163.80 22.15L163.80 22.15Q163.80 18.17 159.35 18.17L159.35 18.17L155.03 18.17L155.03 26.09L159.35 26.09ZM199.76 13.73L205.84 13.73L196.64 31.47L196.64 40.95L191.18 40.95L191.18 31.47L181.94 13.73L188.10 13.73L193.95 26.17L199.76 13.73Z" transform="translate(0, 0)"></path></g></svg></svg>